grf
version=1
nRows=21
nColumns=46
inDegrees=yes
endheader
time	ground_force_1_vx	ground_force_1_vy	ground_force_1_vz	ground_force_1_px	ground_force_1_py	ground_force_1_pz	ground_moment_1_mx	ground_moment_1_my	ground_moment_1_mz	ground_force_2_vx	ground_force_2_vy	ground_force_2_vz	ground_force_2_px	ground_force_2_py	ground_force_2_pz	ground_moment_2_mx	ground_moment_2_my	ground_moment_2_mz	ground_force_3_vx	ground_force_3_vy	ground_force_3_vz	ground_force_3_px	ground_force_3_py	ground_force_3_pz	ground_moment_3_mx	ground_moment_3_my	ground_moment_3_mz	ground_force_4_vx	ground_force_4_vy	ground_force_4_vz	ground_force_4_px	ground_force_4_py	ground_force_4_pz	ground_moment_4_mx	ground_moment_4_my	ground_moment_4_mz	ground_force_5_vx	ground_force_5_vy	ground_force_5_vz	ground_force_5_px	ground_force_5_py	ground_force_5_pz	ground_moment_5_mx	ground_moment_5_my	ground_moment_5_mz
5.150000	0.000000	0.000000	0.000000	0.000000	0.000000	0.000000	0.000000	0.000000	0.000000	0.000000	0.000000	0.000000	0.000000	0.000000	0.000000	0.000000	0.000000	0.000000	0.000000	0.000000	0.000000	0.000000	0.000000	0.000000	0.000000	0.000000	0.000000	72.847636	594.428592	14.632419	1.074893	0.000000	0.236050	-0.000000	6.183102	-0.000000	-72.751099	607.805369	-8.470952	1.390666	0.000000	0.269020	0.000000	-4.842665	0.000000
5.150500	0.000000	0.000000	0.000000	0.000000	0.000000	0.000000	0.000000	0.000000	0.000000	0.000000	0.000000	0.000000	0.000000	0.000000	0.000000	0.000000	0.000000	0.000000	0.000000	0.000000	0.000000	0.000000	0.000000	0.000000	0.000000	0.000000	0.000000	72.831513	594.450950	14.635864	1.074892	0.000000	0.236046	-0.000000	6.182616	-0.000000	-72.749754	607.763897	-8.502007	1.390674	0.000000	0.269044	0.000000	-4.841724	0.000000
5.151000	0.000000	0.000000	0.000000	0.000000	0.000000	0.000000	0.000000	0.000000	0.000000	0.000000	0.000000	0.000000	0.000000	0.000000	0.000000	0.000000	0.000000	0.000000	0.000000	0.000000	0.000000	0.000000	0.000000	0.000000	0.000000	0.000000	0.000000	72.815968	594.473108	14.638656	1.074891	0.000000	0.236042	-0.000000	6.182100	-0.000000	-72.748230	607.722200	-8.533090	1.390682	0.000000	0.269069	0.000000	-4.840851	0.000000
5.151500	0.000000	0.000000	0.000000	0.000000	0.000000	0.000000	0.000000	0.000000	0.000000	0.000000	0.000000	0.000000	0.000000	0.000000	0.000000	0.000000	0.000000	0.000000	0.000000	0.000000	0.000000	0.000000	0.000000	0.000000	0.000000	0.000000	0.000000	72.800995	594.495087	14.640788	1.074889	0.000000	0.236039	-0.000000	6.181551	-0.000000	-72.746523	607.680282	-8.564162	1.390690	0.000000	0.269094	0.000000	-4.840046	0.000000
5.152000	0.000000	0.000000	0.000000	0.000000	0.000000	0.000000	0.000000	0.000000	0.000000	0.000000	0.000000	0.000000	0.000000	0.000000	0.000000	0.000000	0.000000	0.000000	0.000000	0.000000	0.000000	0.000000	0.000000	0.000000	0.000000	0.000000	0.000000	72.786587	594.516923	14.642254	1.074888	0.000000	0.236035	-0.000000	6.180970	-0.000000	-72.744629	607.638148	-8.595184	1.390699	0.000000	0.269119	0.000000	-4.839307	0.000000
5.152500	0.000000	0.000000	0.000000	0.000000	0.000000	0.000000	0.000000	0.000000	0.000000	0.000000	0.000000	0.000000	0.000000	0.000000	0.000000	0.000000	0.000000	0.000000	0.000000	0.000000	0.000000	0.000000	0.000000	0.000000	0.000000	0.000000	0.000000	72.772738	594.538660	14.643054	1.074886	0.000000	0.236032	-0.000000	6.180355	-0.000000	-72.742548	607.595807	-8.626112	1.390708	0.000000	0.269144	0.000000	-4.838632	0.000000
5.153000	0.000000	0.000000	0.000000	0.000000	0.000000	0.000000	0.000000	0.000000	0.000000	0.000000	0.000000	0.000000	0.000000	0.000000	0.000000	0.000000	0.000000	0.000000	0.000000	0.000000	0.000000	0.000000	0.000000	0.000000	0.000000	0.000000	0.000000	72.759443	594.560331	14.643194	1.074884	0.000000	0.236029	-0.000000	6.179709	-0.000000	-72.740282	607.553270	-8.656899	1.390717	0.000000	0.269169	0.000000	-4.838019	0.000000
5.153500	0.000000	0.000000	0.000000	0.000000	0.000000	0.000000	0.000000	0.000000	0.000000	0.000000	0.000000	0.000000	0.000000	0.000000	0.000000	0.000000	0.000000	0.000000	0.000000	0.000000	0.000000	0.000000	0.000000	0.000000	0.000000	0.000000	0.000000	72.746697	594.581954	14.642683	1.074881	0.000000	0.236026	-0.000000	6.179030	-0.000000	-72.737839	607.510555	-8.687497	1.390727	0.000000	0.269194	0.000000	-4.837466	0.000000
5.154000	0.000000	0.000000	0.000000	0.000000	0.000000	0.000000	0.000000	0.000000	0.000000	0.000000	0.000000	0.000000	0.000000	0.000000	0.000000	0.000000	0.000000	0.000000	0.000000	0.000000	0.000000	0.000000	0.000000	0.000000	0.000000	0.000000	0.000000	72.734488	594.603520	14.641532	1.074879	0.000000	0.236023	-0.000000	6.178322	-0.000000	-72.735233	607.467682	-8.717856	1.390737	0.000000	0.269220	0.000000	-4.836972	0.000000
5.154500	0.000000	0.000000	0.000000	0.000000	0.000000	0.000000	0.000000	0.000000	0.000000	0.000000	0.000000	0.000000	0.000000	0.000000	0.000000	0.000000	0.000000	0.000000	0.000000	0.000000	0.000000	0.000000	0.000000	0.000000	0.000000	0.000000	0.000000	72.722807	594.625011	14.639755	1.074876	0.000000	0.236020	-0.000000	6.177584	-0.000000	-72.732477	607.424675	-8.747929	1.390747	0.000000	0.269245	0.000000	-4.836535	0.000000
5.155000	0.000000	0.000000	0.000000	0.000000	0.000000	0.000000	0.000000	0.000000	0.000000	0.000000	0.000000	0.000000	0.000000	0.000000	0.000000	0.000000	0.000000	0.000000	0.000000	0.000000	0.000000	0.000000	0.000000	0.000000	0.000000	0.000000	0.000000	72.711644	594.646410	14.637369	1.074874	0.000000	0.236017	-0.000000	6.176818	-0.000000	-72.729587	607.381558	-8.777673	1.390757	0.000000	0.269271	0.000000	-4.836153	0.000000
5.155500	0.000000	0.000000	0.000000	0.000000	0.000000	0.000000	0.000000	0.000000	0.000000	0.000000	0.000000	0.000000	0.000000	0.000000	0.000000	0.000000	0.000000	0.000000	0.000000	0.000000	0.000000	0.000000	0.000000	0.000000	0.000000	0.000000	0.000000	72.700995	594.667706	14.634396	1.074871	0.000000	0.236014	-0.000000	6.176023	-0.000000	-72.726583	607.338348	-8.807057	1.390768	0.000000	0.269296	0.000000	-4.835818	0.000000
5.156000	0.000000	0.000000	0.000000	0.000000	0.000000	0.000000	0.000000	0.000000	0.000000	0.000000	0.000000	0.000000	0.000000	0.000000	0.000000	0.000000	0.000000	0.000000	0.000000	0.000000	0.000000	0.000000	0.000000	0.000000	0.000000	0.000000	0.000000	72.690857	594.688889	14.630865	1.074868	0.000000	0.236012	-0.000000	6.175204	-0.000000	-72.723489	607.295045	-8.836059	1.390779	0.000000	0.269322	0.000000	-4.835524	0.000000
5.156500	0.000000	0.000000	0.000000	0.000000	0.000000	0.000000	0.000000	0.000000	0.000000	0.000000	0.000000	0.000000	0.000000	0.000000	0.000000	0.000000	0.000000	0.000000	0.000000	0.000000	0.000000	0.000000	0.000000	0.000000	0.000000	0.000000	0.000000	72.681233	594.709939	14.626817	1.074865	0.000000	0.236009	-0.000000	6.174364	-0.000000	-72.720340	607.251627	-8.864663	1.390790	0.000000	0.269347	0.000000	-4.835259	0.000000
5.157000	0.000000	0.000000	0.000000	0.000000	0.000000	0.000000	0.000000	0.000000	0.000000	0.000000	0.000000	0.000000	0.000000	0.000000	0.000000	0.000000	0.000000	0.000000	0.000000	0.000000	0.000000	0.000000	0.000000	0.000000	0.000000	0.000000	0.000000	72.672125	594.730817	14.622298	1.074863	0.000000	0.236007	-0.000000	6.173508	-0.000000	-72.717174	607.208054	-8.892852	1.390801	0.000000	0.269373	0.000000	-4.835012	0.000000
5.157500	0.000000	0.000000	0.000000	0.000000	0.000000	0.000000	0.000000	0.000000	0.000000	0.000000	0.000000	0.000000	0.000000	0.000000	0.000000	0.000000	0.000000	0.000000	0.000000	0.000000	0.000000	0.000000	0.000000	0.000000	0.000000	0.000000	0.000000	72.663541	594.751469	14.617356	1.074860	0.000000	0.236004	-0.000000	6.172642	-0.000000	-72.714031	607.164276	-8.920603	1.390813	0.000000	0.269399	0.000000	-4.834774	0.000000
5.158000	0.000000	0.000000	0.000000	0.000000	0.000000	0.000000	0.000000	0.000000	0.000000	0.000000	0.000000	0.000000	0.000000	0.000000	0.000000	0.000000	0.000000	0.000000	0.000000	0.000000	0.000000	0.000000	0.000000	0.000000	0.000000	0.000000	0.000000	72.655486	594.771827	14.612032	1.074857	0.000000	0.236002	-0.000000	6.171770	-0.000000	-72.710952	607.120240	-8.947891	1.390824	0.000000	0.269424	0.000000	-4.834533	0.000000
5.158500	0.000000	0.000000	0.000000	0.000000	0.000000	0.000000	0.000000	0.000000	0.000000	0.000000	0.000000	0.000000	0.000000	0.000000	0.000000	0.000000	0.000000	0.000000	0.000000	0.000000	0.000000	0.000000	0.000000	0.000000	0.000000	0.000000	0.000000	72.647969	594.791811	14.606358	1.074854	0.000000	0.236000	-0.000000	6.170894	-0.000000	-72.707971	607.075888	-8.974689	1.390836	0.000000	0.269449	0.000000	-4.834282	0.000000
5.159000	0.000000	0.000000	0.000000	0.000000	0.000000	0.000000	0.000000	0.000000	0.000000	0.000000	0.000000	0.000000	0.000000	0.000000	0.000000	0.000000	0.000000	0.000000	0.000000	0.000000	0.000000	0.000000	0.000000	0.000000	0.000000	0.000000	0.000000	72.640995	594.811326	14.600361	1.074852	0.000000	0.235998	-0.000000	6.170015	-0.000000	-72.705119	607.031154	-9.000975	1.390848	0.000000	0.269475	0.000000	-4.834011	0.000000
5.159500	0.000000	0.000000	0.000000	0.000000	0.000000	0.000000	0.000000	0.000000	0.000000	0.000000	0.000000	0.000000	0.000000	0.000000	0.000000	0.000000	0.000000	0.000000	0.000000	0.000000	0.000000	0.000000	0.000000	0.000000	0.000000	0.000000	0.000000	72.634571	594.830269	14.594059	1.074850	0.000000	0.235996	-0.000000	6.169132	-0.000000	-72.702421	606.985958	-9.026729	1.390859	0.000000	0.269500	0.000000	-4.833709	0.000000
5.160000	0.000000	0.000000	0.000000	0.000000	0.000000	0.000000	0.000000	0.000000	0.000000	0.000000	0.000000	0.000000	0.000000	0.000000	0.000000	0.000000	0.000000	0.000000	0.000000	0.000000	0.000000	0.000000	0.000000	0.000000	0.000000	0.000000	0.000000	72.628704	594.848531	14.587470	1.074848	0.000000	0.235994	-0.000000	6.168243	-0.000000	-72.699901	606.940209	-9.051933	1.390871	0.000000	0.269525	0.000000	-4.833367	0.000000
